<svg xmlns="http://www.w3.org/2000/svg" width="301.84" height="35" viewBox="0 0 301.84 35"><rect class="svg__rect" x="0" y="0" width="207.83" height="35" fill="#31C4F3"/><rect class="svg__rect" x="205.83" y="0" width="96.00999999999996" height="35" fill="#389AD5"/><path class="svg__text" d="M16.67 22L14.22 22L14.22 13.47L16.74 13.47Q17.87 13.47 18.74 13.97Q19.62 14.48 20.10 15.40Q20.58 16.33 20.58 17.52L20.58 17.52L20.58 17.95Q20.58 19.16 20.10 20.08Q19.61 21.00 18.72 21.50Q17.83 22 16.67 22L16.67 22ZM15.70 14.66L15.70 20.82L16.67 20.82Q17.83 20.82 18.46 20.09Q19.08 19.36 19.09 17.99L19.09 17.99L19.09 17.52Q19.09 16.13 18.49 15.40Q17.89 14.66 16.74 14.66L16.74 14.66L15.70 14.66ZM25.82 22L24.28 22L27.51 13.47L28.84 13.47L32.06 22L30.52 22L29.82 20.01L26.52 20.01L25.82 22ZM28.17 15.28L26.93 18.82L29.40 18.82L28.17 15.28ZM37.70 14.66L35.06 14.66L35.06 13.47L41.83 13.47L41.83 14.66L39.17 14.66L39.17 22L37.70 22L37.70 14.66ZM46.37 22L44.83 22L48.05 13.47L49.38 13.47L52.61 22L51.06 22L50.36 20.01L47.06 20.01L46.37 22ZM48.71 15.28L47.48 18.82L49.95 18.82L48.71 15.28ZM63.32 22L61.78 22L65.00 13.47L66.33 13.47L69.56 22L68.01 22L67.31 20.01L64.01 20.01L63.32 22ZM65.66 15.28L64.43 18.82L66.90 18.82L65.66 15.28ZM75.00 22L73.51 22L73.51 13.47L75.00 13.47L78.81 19.54L78.81 13.47L80.28 13.47L80.28 22L78.80 22L75.00 15.95L75.00 22ZM85.80 22L84.26 22L87.48 13.47L88.81 13.47L92.04 22L90.49 22L89.80 20.01L86.49 20.01L85.80 22ZM88.14 15.28L86.91 18.82L89.38 18.82L88.14 15.28ZM101.35 22L96.00 22L96.00 13.47L97.48 13.47L97.48 20.82L101.35 20.82L101.35 22ZM107.52 18.86L104.65 13.47L106.30 13.47L108.26 17.51L110.22 13.47L111.86 13.47L109.00 18.86L109.00 22L107.52 22L107.52 18.86ZM115.34 19.42L115.34 19.42L116.83 19.42Q116.83 20.15 117.31 20.55Q117.79 20.95 118.68 20.95L118.68 20.95Q119.46 20.95 119.85 20.63Q120.24 20.32 120.24 19.80L120.24 19.80Q120.24 19.24 119.84 18.94Q119.45 18.63 118.41 18.32Q117.38 18.01 116.77 17.63L116.77 17.63Q115.61 16.90 115.61 15.72L115.61 15.72Q115.61 14.69 116.45 14.02Q117.29 13.35 118.63 13.35L118.63 13.35Q119.52 13.35 120.22 13.68Q120.92 14.01 121.31 14.61Q121.71 15.22 121.71 15.96L121.71 15.96L120.24 15.96Q120.24 15.29 119.82 14.91Q119.40 14.54 118.62 14.54L118.62 14.54Q117.89 14.54 117.49 14.85Q117.09 15.16 117.09 15.71L117.09 15.71Q117.09 16.18 117.52 16.50Q117.96 16.81 118.95 17.10Q119.95 17.40 120.55 17.78Q121.16 18.16 121.44 18.65Q121.72 19.13 121.72 19.79L121.72 19.79Q121.72 20.86 120.90 21.49Q120.08 22.12 118.68 22.12L118.68 22.12Q117.76 22.12 116.98 21.77Q116.21 21.43 115.77 20.83Q115.34 20.22 115.34 19.42ZM127.57 22L126.10 22L126.10 13.47L127.57 13.47L127.57 22ZM131.95 19.42L131.95 19.42L133.43 19.42Q133.43 20.15 133.91 20.55Q134.39 20.95 135.29 20.95L135.29 20.95Q136.06 20.95 136.45 20.63Q136.84 20.32 136.84 19.80L136.84 19.80Q136.84 19.24 136.45 18.94Q136.05 18.63 135.02 18.32Q133.99 18.01 133.38 17.63L133.38 17.63Q132.21 16.90 132.21 15.72L132.21 15.72Q132.21 14.69 133.05 14.02Q133.89 13.35 135.24 13.35L135.24 13.35Q136.13 13.35 136.82 13.68Q137.52 14.01 137.92 14.61Q138.32 15.22 138.32 15.96L138.32 15.96L136.84 15.96Q136.84 15.29 136.42 14.91Q136.00 14.54 135.22 14.54L135.22 14.54Q134.50 14.54 134.10 14.85Q133.70 15.16 133.70 15.71L133.70 15.71Q133.70 16.18 134.13 16.50Q134.56 16.81 135.56 17.10Q136.56 17.40 137.16 17.78Q137.76 18.16 138.04 18.65Q138.32 19.13 138.32 19.79L138.32 19.79Q138.32 20.86 137.51 21.49Q136.69 22.12 135.29 22.12L135.29 22.12Q134.36 22.12 133.59 21.77Q132.81 21.43 132.38 20.83Q131.95 20.22 131.95 19.42ZM148.46 19.16L148.46 19.16L148.46 13.47L149.93 13.47L149.93 19.18Q149.93 20.03 150.37 20.48Q150.80 20.93 151.64 20.93L151.64 20.93Q153.35 20.93 153.35 19.13L153.35 19.13L153.35 13.47L154.83 13.47L154.83 19.17Q154.83 20.53 153.96 21.32Q153.09 22.12 151.64 22.12L151.64 22.12Q150.18 22.12 149.32 21.33Q148.46 20.55 148.46 19.16ZM158.97 19.42L158.97 19.42L160.45 19.42Q160.45 20.15 160.93 20.55Q161.41 20.95 162.31 20.95L162.31 20.95Q163.08 20.95 163.47 20.63Q163.86 20.32 163.86 19.80L163.86 19.80Q163.86 19.24 163.46 18.94Q163.07 18.63 162.04 18.32Q161.01 18.01 160.40 17.63L160.40 17.63Q159.23 16.90 159.23 15.72L159.23 15.72Q159.23 14.69 160.07 14.02Q160.91 13.35 162.25 13.35L162.25 13.35Q163.14 13.35 163.84 13.68Q164.54 14.01 164.94 14.61Q165.34 15.22 165.34 15.96L165.34 15.96L163.86 15.96Q163.86 15.29 163.44 14.91Q163.02 14.54 162.24 14.54L162.24 14.54Q161.52 14.54 161.11 14.85Q160.71 15.16 160.71 15.71L160.71 15.71Q160.71 16.18 161.15 16.50Q161.58 16.81 162.58 17.10Q163.57 17.40 164.18 17.78Q164.78 18.16 165.06 18.65Q165.34 19.13 165.34 19.79L165.34 19.79Q165.34 20.86 164.52 21.49Q163.71 22.12 162.31 22.12L162.31 22.12Q161.38 22.12 160.60 21.77Q159.83 21.43 159.40 20.83Q158.97 20.22 158.97 19.42ZM171.20 22L169.72 22L169.72 13.47L171.20 13.47L171.20 22ZM177.49 22L176.01 22L176.01 13.47L177.49 13.47L181.30 19.54L181.30 13.47L182.77 13.47L182.77 22L181.29 22L177.49 15.95L177.49 22ZM187.27 18.13L187.27 18.13L187.27 17.46Q187.27 15.53 188.19 14.44Q189.12 13.35 190.78 13.35L190.78 13.35Q192.20 13.35 193.04 14.05Q193.88 14.76 194.05 16.08L194.05 16.08L192.59 16.08Q192.35 14.54 190.81 14.54L190.81 14.54Q189.81 14.54 189.29 15.26Q188.77 15.98 188.76 17.37L188.76 17.37L188.76 18.02Q188.76 19.40 189.34 20.17Q189.92 20.93 190.96 20.93L190.96 20.93Q192.10 20.93 192.58 20.42L192.58 20.42L192.58 18.75L190.82 18.75L190.82 17.62L194.05 17.62L194.05 20.89Q193.59 21.50 192.77 21.81Q191.95 22.12 190.91 22.12L190.91 22.12Q189.83 22.12 189.01 21.63Q188.18 21.14 187.73 20.24Q187.29 19.33 187.27 18.13Z" fill="#FFFFFF"/><path class="svg__text" d="M222.40 22L220.02 22L220.02 13.60L223.86 13.60Q225.00 13.60 225.84 13.98Q226.68 14.35 227.14 15.06Q227.59 15.76 227.59 16.71L227.59 16.71Q227.59 17.66 227.14 18.35Q226.68 19.05 225.84 19.42Q225.00 19.80 223.86 19.80L223.86 19.80L222.40 19.80L222.40 22ZM222.40 15.47L222.40 17.93L223.72 17.93Q224.45 17.93 224.82 17.61Q225.19 17.29 225.19 16.71L225.19 16.71Q225.19 16.12 224.82 15.80Q224.45 15.47 223.72 15.47L223.72 15.47L222.40 15.47ZM234.47 18.95L231.27 13.60L233.78 13.60L235.77 16.94L237.76 13.60L240.06 13.60L236.85 18.99L236.85 22L234.47 22L234.47 18.95ZM245.94 15.48L243.36 15.48L243.36 13.60L250.88 13.60L250.88 15.48L248.31 15.48L248.31 22L245.94 22L245.94 15.48ZM257.63 22L255.25 22L255.25 13.60L257.63 13.60L257.63 16.76L260.87 16.76L260.87 13.60L263.24 13.60L263.24 22L260.87 22L260.87 18.72L257.63 18.72L257.63 22ZM267.98 17.80L267.98 17.80Q267.98 16.55 268.58 15.55Q269.18 14.56 270.25 14.00Q271.31 13.43 272.64 13.43L272.64 13.43Q273.97 13.43 275.03 14.00Q276.10 14.56 276.70 15.55Q277.31 16.55 277.31 17.80L277.31 17.80Q277.31 19.05 276.70 20.04Q276.10 21.04 275.04 21.60Q273.98 22.17 272.64 22.17L272.64 22.17Q271.31 22.17 270.25 21.60Q269.18 21.04 268.58 20.04Q267.98 19.05 267.98 17.80ZM270.37 17.80L270.37 17.80Q270.37 18.51 270.68 19.05Q270.98 19.60 271.49 19.90Q272.01 20.20 272.64 20.20L272.64 20.20Q273.28 20.20 273.80 19.90Q274.31 19.60 274.61 19.05Q274.91 18.51 274.91 17.80L274.91 17.80Q274.91 17.09 274.61 16.54Q274.31 16 273.80 15.70Q273.28 15.40 272.64 15.40L272.64 15.40Q272.00 15.40 271.49 15.70Q270.98 16 270.68 16.54Q270.37 17.09 270.37 17.80ZM284.37 22L282.04 22L282.04 13.60L284.00 13.60L287.71 18.07L287.71 13.60L290.03 13.60L290.03 22L288.08 22L284.37 17.52L284.37 22Z" fill="#FFFFFF" x="218.83"/></svg>