<svg xmlns="http://www.w3.org/2000/svg" width="489.79" height="35" viewBox="0 0 489.79 35"><rect class="svg__rect" x="0" y="0" width="307.33" height="35" fill="#31C4F3"/><rect class="svg__rect" x="305.33" y="0" width="184.46000000000004" height="35" fill="#389AD5"/><path class="svg__text" d="M15.69 22L14.22 22L14.22 13.47L16.14 13.47L18.60 20.01L21.06 13.47L22.97 13.47L22.97 22L21.49 22L21.49 19.19L21.64 15.43L19.12 22L18.06 22L15.55 15.43L15.69 19.19L15.69 22ZM28.49 22L26.95 22L30.17 13.47L31.50 13.47L34.73 22L33.18 22L32.49 20.01L29.18 20.01L28.49 22ZM30.83 15.28L29.60 18.82L32.07 18.82L30.83 15.28ZM38.42 18.19L38.42 18.19L38.42 17.39Q38.42 16.19 38.84 15.27Q39.27 14.35 40.07 13.85Q40.87 13.35 41.92 13.35L41.92 13.35Q43.33 13.35 44.19 14.12Q45.06 14.89 45.20 16.29L45.20 16.29L43.72 16.29Q43.61 15.37 43.18 14.96Q42.75 14.55 41.92 14.55L41.92 14.55Q40.95 14.55 40.43 15.26Q39.92 15.96 39.90 17.33L39.90 17.33L39.90 18.09Q39.90 19.47 40.40 20.20Q40.89 20.92 41.85 20.92L41.85 20.92Q42.72 20.92 43.16 20.53Q43.60 20.14 43.72 19.22L43.72 19.22L45.20 19.22Q45.07 20.59 44.19 21.35Q43.31 22.12 41.85 22.12L41.85 22.12Q40.83 22.12 40.05 21.63Q39.28 21.15 38.86 20.26Q38.43 19.37 38.42 18.19ZM50.99 22L49.51 22L49.51 13.47L50.99 13.47L50.99 17.02L54.81 17.02L54.81 13.47L56.28 13.47L56.28 22L54.81 22L54.81 18.21L50.99 18.21L50.99 22ZM62.59 22L61.11 22L61.11 13.47L62.59 13.47L62.59 22ZM68.88 22L67.40 22L67.40 13.47L68.88 13.47L72.69 19.54L72.69 13.47L74.16 13.47L74.16 22L72.68 22L68.88 15.95L68.88 22ZM84.48 22L78.90 22L78.90 13.47L84.44 13.47L84.44 14.66L80.39 14.66L80.39 17.02L83.89 17.02L83.89 18.19L80.39 18.19L80.39 20.82L84.48 20.82L84.48 22ZM100.01 22L94.65 22L94.65 13.47L96.14 13.47L96.14 20.82L100.01 20.82L100.01 22ZM109.71 22L104.14 22L104.14 13.47L109.67 13.47L109.67 14.66L105.62 14.66L105.62 17.02L109.12 17.02L109.12 18.19L105.62 18.19L105.62 20.82L109.71 20.82L109.71 22ZM114.69 22L113.15 22L116.37 13.47L117.70 13.47L120.93 22L119.38 22L118.68 20.01L115.38 20.01L114.69 22ZM117.03 15.28L115.80 18.82L118.27 18.82L117.03 15.28ZM126.37 22L124.88 22L124.88 13.47L127.88 13.47Q129.36 13.47 130.16 14.13Q130.97 14.79 130.97 16.05L130.97 16.05Q130.97 16.90 130.55 17.48Q130.14 18.06 129.40 18.37L129.40 18.37L131.32 21.92L131.32 22L129.73 22L128.02 18.71L126.37 18.71L126.37 22ZM126.37 14.66L126.37 17.52L127.89 17.52Q128.64 17.52 129.06 17.15Q129.48 16.77 129.48 16.11L129.48 16.11Q129.48 15.43 129.09 15.05Q128.70 14.68 127.93 14.66L127.93 14.66L126.37 14.66ZM136.84 22L135.36 22L135.36 13.47L136.84 13.47L140.66 19.54L140.66 13.47L142.13 13.47L142.13 22L140.64 22L136.84 15.95L136.84 22ZM148.43 22L146.96 22L146.96 13.47L148.43 13.47L148.43 22ZM154.72 22L153.24 22L153.24 13.47L154.72 13.47L158.54 19.54L158.54 13.47L160.01 13.47L160.01 22L158.53 22L154.72 15.95L154.72 22ZM164.50 18.13L164.50 18.13L164.50 17.46Q164.50 15.53 165.43 14.44Q166.36 13.35 168.01 13.35L168.01 13.35Q169.44 13.35 170.28 14.05Q171.11 14.76 171.28 16.08L171.28 16.08L169.83 16.08Q169.58 14.54 168.04 14.54L168.04 14.54Q167.05 14.54 166.53 15.26Q166.01 15.98 165.99 17.37L165.99 17.37L165.99 18.02Q165.99 19.40 166.58 20.17Q167.16 20.93 168.20 20.93L168.20 20.93Q169.33 20.93 169.81 20.42L169.81 20.42L169.81 18.75L168.06 18.75L168.06 17.62L171.29 17.62L171.29 20.89Q170.83 21.50 170.01 21.81Q169.19 22.12 168.14 22.12L168.14 22.12Q167.07 22.12 166.24 21.63Q165.42 21.14 164.97 20.24Q164.52 19.33 164.50 18.13ZM183.37 22L181.88 22L181.88 13.47L185.15 13.47Q186.58 13.47 187.42 14.21Q188.26 14.96 188.26 16.18L188.26 16.18Q188.26 17.44 187.43 18.13Q186.61 18.83 185.13 18.83L185.13 18.83L183.37 18.83L183.37 22ZM183.37 14.66L183.37 17.64L185.15 17.64Q185.94 17.64 186.35 17.27Q186.77 16.90 186.77 16.19L186.77 16.19Q186.77 15.50 186.35 15.09Q185.93 14.68 185.19 14.66L185.19 14.66L183.37 14.66ZM194.02 22L192.54 22L192.54 13.47L195.54 13.47Q197.02 13.47 197.82 14.13Q198.62 14.79 198.62 16.05L198.62 16.05Q198.62 16.90 198.21 17.48Q197.80 18.06 197.06 18.37L197.06 18.37L198.97 21.92L198.97 22L197.39 22L195.68 18.71L194.02 18.71L194.02 22ZM194.02 14.66L194.02 17.52L195.55 17.52Q196.30 17.52 196.72 17.15Q197.14 16.77 197.14 16.11L197.14 16.11Q197.14 15.43 196.75 15.05Q196.36 14.68 195.59 14.66L195.59 14.66L194.02 14.66ZM202.75 18.00L202.75 18.00L202.75 17.52Q202.75 16.28 203.19 15.32Q203.63 14.37 204.44 13.86Q205.24 13.35 206.29 13.35Q207.33 13.35 208.14 13.85Q208.94 14.35 209.38 15.29Q209.82 16.23 209.83 17.48L209.83 17.48L209.83 17.96Q209.83 19.21 209.39 20.16Q208.96 21.10 208.15 21.61Q207.35 22.12 206.30 22.12L206.30 22.12Q205.26 22.12 204.45 21.61Q203.64 21.10 203.20 20.17Q202.75 19.23 202.75 18.00ZM204.23 17.46L204.23 17.96Q204.23 19.36 204.78 20.13Q205.33 20.90 206.30 20.90L206.30 20.90Q207.28 20.90 207.81 20.15Q208.34 19.40 208.34 17.96L208.34 17.96L208.34 17.51Q208.34 16.09 207.81 15.34Q207.27 14.58 206.29 14.58L206.29 14.58Q205.33 14.58 204.78 15.33Q204.24 16.09 204.23 17.46L204.23 17.46ZM214.05 18.13L214.05 18.13L214.05 17.46Q214.05 15.53 214.97 14.44Q215.90 13.35 217.56 13.35L217.56 13.35Q218.98 13.35 219.82 14.05Q220.65 14.76 220.82 16.08L220.82 16.08L219.37 16.08Q219.13 14.54 217.58 14.54L217.58 14.54Q216.59 14.54 216.07 15.26Q215.55 15.98 215.53 17.37L215.53 17.37L215.53 18.02Q215.53 19.40 216.12 20.17Q216.70 20.93 217.74 20.93L217.74 20.93Q218.87 20.93 219.35 20.42L219.35 20.42L219.35 18.75L217.60 18.75L217.60 17.62L220.83 17.62L220.83 20.89Q220.37 21.50 219.55 21.81Q218.73 22.12 217.68 22.12L217.68 22.12Q216.61 22.12 215.79 21.63Q214.96 21.14 214.51 20.24Q214.06 19.33 214.05 18.13ZM226.93 22L225.45 22L225.45 13.47L228.45 13.47Q229.92 13.47 230.73 14.13Q231.53 14.79 231.53 16.05L231.53 16.05Q231.53 16.90 231.12 17.48Q230.70 18.06 229.97 18.37L229.97 18.37L231.88 21.92L231.88 22L230.29 22L228.58 18.71L226.93 18.71L226.93 22ZM226.93 14.66L226.93 17.52L228.45 17.52Q229.20 17.52 229.63 17.15Q230.05 16.77 230.05 16.11L230.05 16.11Q230.05 15.43 229.66 15.05Q229.27 14.68 228.49 14.66L228.49 14.66L226.93 14.66ZM236.70 22L235.16 22L238.39 13.47L239.72 13.47L242.94 22L241.40 22L240.70 20.01L237.39 20.01L236.70 22ZM239.05 15.28L237.81 18.82L240.28 18.82L239.05 15.28ZM248.38 22L246.90 22L246.90 13.47L248.82 13.47L251.28 20.01L253.74 13.47L255.65 13.47L255.65 22L254.18 22L254.18 19.19L254.32 15.43L251.80 22L250.74 22L248.23 15.43L248.38 19.19L248.38 22ZM259.96 19.42L259.96 19.42L261.44 19.42Q261.44 20.15 261.92 20.55Q262.40 20.95 263.30 20.95L263.30 20.95Q264.07 20.95 264.46 20.63Q264.85 20.32 264.85 19.80L264.85 19.80Q264.85 19.24 264.46 18.94Q264.06 18.63 263.03 18.32Q262.00 18.01 261.39 17.63L261.39 17.63Q260.22 16.90 260.22 15.72L260.22 15.72Q260.22 14.69 261.06 14.02Q261.90 13.35 263.25 13.35L263.25 13.35Q264.14 13.35 264.83 13.68Q265.53 14.01 265.93 14.61Q266.33 15.22 266.33 15.96L266.33 15.96L264.85 15.96Q264.85 15.29 264.43 14.91Q264.01 14.54 263.23 14.54L263.23 14.54Q262.51 14.54 262.11 14.85Q261.71 15.16 261.71 15.71L261.71 15.71Q261.71 16.18 262.14 16.50Q262.57 16.81 263.57 17.10Q264.56 17.40 265.17 17.78Q265.77 18.16 266.05 18.65Q266.33 19.13 266.33 19.79L266.33 19.79Q266.33 20.86 265.52 21.49Q264.70 22.12 263.30 22.12L263.30 22.12Q262.37 22.12 261.60 21.77Q260.82 21.43 260.39 20.83Q259.96 20.22 259.96 19.42ZM279.71 22L276.60 22L276.60 13.47L279.52 13.47Q280.97 13.47 281.73 14.05Q282.48 14.63 282.48 15.78L282.48 15.78Q282.48 16.36 282.17 16.83Q281.85 17.30 281.24 17.56L281.24 17.56Q281.93 17.75 282.31 18.26Q282.69 18.78 282.69 19.51L282.69 19.51Q282.69 20.71 281.92 21.36Q281.15 22 279.71 22L279.71 22ZM278.08 18.15L278.08 20.82L279.73 20.82Q280.43 20.82 280.82 20.47Q281.21 20.13 281.21 19.51L281.21 19.51Q281.21 18.18 279.85 18.15L279.85 18.15L278.08 18.15ZM278.08 14.66L278.08 17.06L279.54 17.06Q280.23 17.06 280.62 16.75Q281.01 16.43 281.01 15.86L281.01 15.86Q281.01 15.23 280.65 14.95Q280.29 14.66 279.52 14.66L279.52 14.66L278.08 14.66ZM289.20 18.86L286.33 13.47L287.98 13.47L289.94 17.51L291.90 13.47L293.55 13.47L290.69 18.86L290.69 22L289.20 22L289.20 18.86Z" fill="#FFFFFF"/><path class="svg__text" d="M321.87 22L319.52 22L319.52 13.60L321.87 13.60L321.87 17.09L325.13 13.60L327.74 13.60L324.31 17.32L327.92 22L325.16 22L322.76 18.95L321.87 19.90L321.87 22ZM334.41 22L332.03 22L332.03 13.60L335.87 13.60Q337.01 13.60 337.85 13.98Q338.69 14.35 339.15 15.06Q339.60 15.76 339.60 16.71L339.60 16.71Q339.60 17.62 339.18 18.30Q338.75 18.98 337.96 19.36L337.96 19.36L339.77 22L337.22 22L335.70 19.77L334.41 19.77L334.41 22ZM334.41 15.47L334.41 17.93L335.72 17.93Q336.46 17.93 336.83 17.61Q337.20 17.29 337.20 16.71L337.20 16.71Q337.20 16.12 336.83 15.79Q336.46 15.47 335.72 15.47L335.72 15.47L334.41 15.47ZM346.77 22L344.39 22L344.39 13.60L346.77 13.60L346.77 22ZM353.74 15.48L351.15 15.48L351.15 13.60L358.68 13.60L358.68 15.48L356.11 15.48L356.11 22L353.74 22L353.74 15.48ZM365.43 22L363.05 22L363.05 13.60L365.43 13.60L365.43 22ZM372.96 22L370.60 22L370.60 13.60L372.96 13.60L372.96 17.09L376.21 13.60L378.82 13.60L375.39 17.32L379.00 22L376.24 22L373.84 18.95L372.96 19.90L372.96 22ZM391.50 22L389.07 22L392.78 13.60L395.13 13.60L398.84 22L396.38 22L395.71 20.37L392.16 20.37L391.50 22ZM393.94 15.93L392.85 18.61L395.02 18.61L393.94 15.93ZM402.57 17.80L402.57 17.80Q402.57 16.54 403.17 15.54Q403.76 14.55 404.83 13.99Q405.90 13.43 407.24 13.43L407.24 13.43Q408.42 13.43 409.36 13.83Q410.30 14.22 410.92 14.97L410.92 14.97L409.41 16.33Q408.56 15.40 407.39 15.40L407.39 15.40Q407.37 15.40 407.37 15.40L407.37 15.40Q406.29 15.40 405.63 16.06Q404.97 16.71 404.97 17.80L404.97 17.80Q404.97 18.50 405.27 19.04Q405.57 19.59 406.11 19.89Q406.65 20.20 407.34 20.20L407.34 20.20Q408.03 20.20 408.63 19.93L408.63 19.93L408.63 17.62L410.72 17.62L410.72 21.10Q410.00 21.61 409.07 21.89Q408.14 22.17 407.20 22.17L407.20 22.17Q405.88 22.17 404.82 21.61Q403.76 21.05 403.17 20.05Q402.57 19.06 402.57 17.80ZM417.14 22L414.71 22L418.42 13.60L420.76 13.60L424.48 22L422.01 22L421.35 20.37L417.80 20.37L417.14 22ZM419.57 15.93L418.49 18.61L420.65 18.61L419.57 15.93ZM431.01 22L428.63 22L428.63 13.60L432.47 13.60Q433.62 13.60 434.46 13.98Q435.29 14.35 435.75 15.06Q436.21 15.76 436.21 16.71L436.21 16.71Q436.21 17.62 435.78 18.30Q435.35 18.98 434.56 19.36L434.56 19.36L436.37 22L433.83 22L432.31 19.77L431.01 19.77L431.01 22ZM431.01 15.47L431.01 17.93L432.33 17.93Q433.06 17.93 433.43 17.61Q433.81 17.29 433.81 16.71L433.81 16.71Q433.81 16.12 433.43 15.79Q433.06 15.47 432.33 15.47L432.33 15.47L431.01 15.47ZM443.07 22L440.35 13.60L442.80 13.60L444.49 18.96L446.26 13.60L448.45 13.60L450.14 19.01L451.90 13.60L454.17 13.60L451.45 22L448.90 22L447.30 16.89L445.62 22L443.07 22ZM460.10 22L457.68 22L461.39 13.60L463.73 13.60L467.44 22L464.98 22L464.31 20.37L460.76 20.37L460.10 22ZM462.54 15.93L461.46 18.61L463.62 18.61L462.54 15.93ZM477.98 22L471.60 22L471.60 13.60L473.98 13.60L473.98 20.11L477.98 20.11L477.98 22Z" fill="#FFFFFF" x="318.33"/></svg>