<svg xmlns="http://www.w3.org/2000/svg" width="563.95" height="35" viewBox="0 0 563.95 35"><rect class="svg__rect" x="0" y="0" width="381.49" height="35" fill="#31C4F3"/><rect class="svg__rect" x="379.49" y="0" width="184.45999999999998" height="35" fill="#389AD5"/><path class="svg__text" d="M13.95 18.19L13.95 18.19L13.95 17.39Q13.95 16.19 14.38 15.27Q14.80 14.35 15.60 13.85Q16.40 13.35 17.45 13.35L17.45 13.35Q18.86 13.35 19.73 14.12Q20.59 14.89 20.73 16.29L20.73 16.29L19.25 16.29Q19.14 15.37 18.71 14.96Q18.28 14.55 17.45 14.55L17.45 14.55Q16.48 14.55 15.97 15.26Q15.45 15.96 15.44 17.33L15.44 17.33L15.44 18.09Q15.44 19.47 15.93 20.20Q16.43 20.92 17.38 20.92L17.38 20.92Q18.25 20.92 18.69 20.53Q19.13 20.14 19.25 19.22L19.25 19.22L20.73 19.22Q20.60 20.59 19.72 21.35Q18.84 22.12 17.38 22.12L17.38 22.12Q16.36 22.12 15.59 21.63Q14.81 21.15 14.39 20.26Q13.97 19.37 13.95 18.19ZM24.77 18.00L24.77 18.00L24.77 17.52Q24.77 16.28 25.21 15.32Q25.65 14.37 26.46 13.86Q27.27 13.35 28.31 13.35Q29.35 13.35 30.16 13.85Q30.96 14.35 31.40 15.29Q31.84 16.23 31.85 17.48L31.85 17.48L31.85 17.96Q31.85 19.21 31.41 20.16Q30.98 21.10 30.18 21.61Q29.37 22.12 28.32 22.12L28.32 22.12Q27.28 22.12 26.47 21.61Q25.66 21.10 25.22 20.17Q24.78 19.23 24.77 18.00ZM26.25 17.46L26.25 17.96Q26.25 19.36 26.80 20.13Q27.35 20.90 28.32 20.90L28.32 20.90Q29.31 20.90 29.84 20.15Q30.37 19.40 30.37 17.96L30.37 17.96L30.37 17.51Q30.37 16.09 29.83 15.34Q29.29 14.58 28.31 14.58L28.31 14.58Q27.35 14.58 26.81 15.33Q26.26 16.09 26.25 17.46L26.25 17.46ZM37.79 22L36.31 22L36.31 13.47L38.23 13.47L40.70 20.01L43.15 13.47L45.07 13.47L45.07 22L43.59 22L43.59 19.19L43.74 15.43L41.22 22L40.16 22L37.64 15.43L37.79 19.19L37.79 22ZM51.29 22L49.81 22L49.81 13.47L53.07 13.47Q54.50 13.47 55.34 14.21Q56.18 14.96 56.18 16.18L56.18 16.18Q56.18 17.44 55.36 18.13Q54.54 18.83 53.05 18.83L53.05 18.83L51.29 18.83L51.29 22ZM51.29 14.66L51.29 17.64L53.07 17.64Q53.86 17.64 54.28 17.27Q54.69 16.90 54.69 16.19L54.69 16.19Q54.69 15.50 54.27 15.09Q53.85 14.68 53.11 14.66L53.11 14.66L51.29 14.66ZM60.33 19.16L60.33 19.16L60.33 13.47L61.81 13.47L61.81 19.18Q61.81 20.03 62.24 20.48Q62.67 20.93 63.52 20.93L63.52 20.93Q65.23 20.93 65.23 19.13L65.23 19.13L65.23 13.47L66.71 13.47L66.71 19.17Q66.71 20.53 65.84 21.32Q64.97 22.12 63.52 22.12L63.52 22.12Q62.05 22.12 61.19 21.33Q60.33 20.55 60.33 19.16ZM72.96 14.66L70.32 14.66L70.32 13.47L77.09 13.47L77.09 14.66L74.43 14.66L74.43 22L72.96 22L72.96 14.66ZM86.42 22L80.84 22L80.84 13.47L86.38 13.47L86.38 14.66L82.33 14.66L82.33 17.02L85.83 17.02L85.83 18.19L82.33 18.19L82.33 20.82L86.42 20.82L86.42 22ZM92.10 22L90.62 22L90.62 13.47L93.62 13.47Q95.09 13.47 95.90 14.13Q96.70 14.79 96.70 16.05L96.70 16.05Q96.70 16.90 96.29 17.48Q95.87 18.06 95.14 18.37L95.14 18.37L97.05 21.92L97.05 22L95.46 22L93.75 18.71L92.10 18.71L92.10 22ZM92.10 14.66L92.10 17.52L93.62 17.52Q94.37 17.52 94.80 17.15Q95.22 16.77 95.22 16.11L95.22 16.11Q95.22 15.43 94.83 15.05Q94.44 14.68 93.66 14.66L93.66 14.66L92.10 14.66ZM108.55 22L107.07 22L107.07 13.47L108.55 13.47L112.37 19.54L112.37 13.47L113.84 13.47L113.84 22L112.36 22L108.55 15.95L108.55 22ZM124.16 22L118.58 22L118.58 13.47L124.12 13.47L124.12 14.66L120.06 14.66L120.06 17.02L123.56 17.02L123.56 18.19L120.06 18.19L120.06 20.82L124.16 20.82L124.16 22ZM130.03 14.66L127.40 14.66L127.40 13.47L134.16 13.47L134.16 14.66L131.50 14.66L131.50 22L130.03 22L130.03 14.66ZM139.30 22L137.33 13.47L138.81 13.47L140.13 19.88L141.76 13.47L143.00 13.47L144.61 19.89L145.92 13.47L147.39 13.47L145.43 22L144.01 22L142.39 15.77L140.73 22L139.30 22ZM151.20 18.00L151.20 18.00L151.20 17.52Q151.20 16.28 151.64 15.32Q152.08 14.37 152.89 13.86Q153.69 13.35 154.74 13.35Q155.78 13.35 156.59 13.85Q157.39 14.35 157.83 15.29Q158.27 16.23 158.28 17.48L158.28 17.48L158.28 17.96Q158.28 19.21 157.84 20.16Q157.41 21.10 156.60 21.61Q155.80 22.12 154.75 22.12L154.75 22.12Q153.71 22.12 152.90 21.61Q152.09 21.10 151.65 20.17Q151.20 19.23 151.20 18.00ZM152.68 17.46L152.68 17.96Q152.68 19.36 153.23 20.13Q153.78 20.90 154.75 20.90L154.75 20.90Q155.73 20.90 156.26 20.15Q156.79 19.40 156.79 17.96L156.79 17.96L156.79 17.51Q156.79 16.09 156.26 15.34Q155.72 14.58 154.74 14.58L154.74 14.58Q153.78 14.58 153.23 15.33Q152.69 16.09 152.68 17.46L152.68 17.46ZM164.22 22L162.74 22L162.74 13.47L165.74 13.47Q167.22 13.47 168.02 14.13Q168.82 14.79 168.82 16.05L168.82 16.05Q168.82 16.90 168.41 17.48Q168.00 18.06 167.26 18.37L167.26 18.37L169.17 21.92L169.17 22L167.59 22L165.88 18.71L164.22 18.71L164.22 22ZM164.22 14.66L164.22 17.52L165.75 17.52Q166.50 17.52 166.92 17.15Q167.34 16.77 167.34 16.11L167.34 16.11Q167.34 15.43 166.95 15.05Q166.56 14.68 165.79 14.66L165.79 14.66L164.22 14.66ZM174.70 22L173.22 22L173.22 13.47L174.70 13.47L174.70 17.47L175.52 16.46L178.02 13.47L179.81 13.47L176.64 17.25L179.99 22L178.23 22L175.67 18.31L174.70 19.34L174.70 22ZM185.33 22L183.86 22L183.86 13.47L185.33 13.47L185.33 22ZM191.63 22L190.14 22L190.14 13.47L191.63 13.47L195.44 19.54L195.44 13.47L196.91 13.47L196.91 22L195.43 22L191.63 15.95L191.63 22ZM201.41 18.13L201.41 18.13L201.41 17.46Q201.41 15.53 202.33 14.44Q203.26 13.35 204.92 13.35L204.92 13.35Q206.34 13.35 207.18 14.05Q208.02 14.76 208.19 16.08L208.19 16.08L206.73 16.08Q206.49 14.54 204.95 14.54L204.95 14.54Q203.95 14.54 203.43 15.26Q202.91 15.98 202.89 17.37L202.89 17.37L202.89 18.02Q202.89 19.40 203.48 20.17Q204.06 20.93 205.10 20.93L205.10 20.93Q206.23 20.93 206.72 20.42L206.72 20.42L206.72 18.75L204.96 18.75L204.96 17.62L208.19 17.62L208.19 20.89Q207.73 21.50 206.91 21.81Q206.09 22.12 205.05 22.12L205.05 22.12Q203.97 22.12 203.15 21.63Q202.32 21.14 201.87 20.24Q201.42 19.33 201.41 18.13ZM224.14 22L218.79 22L218.79 13.47L220.27 13.47L220.27 20.82L224.14 20.82L224.14 22ZM229.05 22L227.50 22L230.73 13.47L232.06 13.47L235.29 22L233.74 22L233.04 20.01L229.74 20.01L229.05 22ZM231.39 15.28L230.15 18.82L232.63 18.82L231.39 15.28ZM242.35 22L239.24 22L239.24 13.47L242.16 13.47Q243.61 13.47 244.37 14.05Q245.12 14.63 245.12 15.78L245.12 15.78Q245.12 16.36 244.81 16.83Q244.49 17.30 243.88 17.56L243.88 17.56Q244.57 17.75 244.95 18.26Q245.33 18.78 245.33 19.51L245.33 19.51Q245.33 20.71 244.56 21.36Q243.79 22 242.35 22L242.35 22ZM240.72 18.15L240.72 20.82L242.37 20.82Q243.07 20.82 243.46 20.47Q243.85 20.13 243.85 19.51L243.85 19.51Q243.85 18.18 242.49 18.15L242.49 18.15L240.72 18.15ZM240.72 14.66L240.72 17.06L242.18 17.06Q242.87 17.06 243.26 16.75Q243.65 16.43 243.65 15.86L243.65 15.86Q243.65 15.23 243.29 14.95Q242.93 14.66 242.16 14.66L242.16 14.66L240.72 14.66ZM257.26 22L255.78 22L255.78 13.47L259.04 13.47Q260.47 13.47 261.31 14.21Q262.15 14.96 262.15 16.18L262.15 16.18Q262.15 17.44 261.33 18.13Q260.50 18.83 259.02 18.83L259.02 18.83L257.26 18.83L257.26 22ZM257.26 14.66L257.26 17.64L259.04 17.64Q259.83 17.64 260.25 17.27Q260.66 16.90 260.66 16.19L260.66 16.19Q260.66 15.50 260.24 15.09Q259.82 14.68 259.08 14.66L259.08 14.66L257.26 14.66ZM267.92 22L266.43 22L266.43 13.47L269.43 13.47Q270.91 13.47 271.71 14.13Q272.52 14.79 272.52 16.05L272.52 16.05Q272.52 16.90 272.10 17.48Q271.69 18.06 270.95 18.37L270.95 18.37L272.87 21.92L272.87 22L271.28 22L269.57 18.71L267.92 18.71L267.92 22ZM267.92 14.66L267.92 17.52L269.44 17.52Q270.19 17.52 270.61 17.15Q271.03 16.77 271.03 16.11L271.03 16.11Q271.03 15.43 270.64 15.05Q270.25 14.68 269.48 14.66L269.48 14.66L267.92 14.66ZM276.64 18.00L276.64 18.00L276.64 17.52Q276.64 16.28 277.08 15.32Q277.53 14.37 278.33 13.86Q279.14 13.35 280.18 13.35Q281.22 13.35 282.03 13.85Q282.83 14.35 283.27 15.29Q283.71 16.23 283.72 17.48L283.72 17.48L283.72 17.96Q283.72 19.21 283.29 20.16Q282.85 21.10 282.05 21.61Q281.24 22.12 280.19 22.12L280.19 22.12Q279.15 22.12 278.34 21.61Q277.53 21.10 277.09 20.17Q276.65 19.23 276.64 18.00ZM278.12 17.46L278.12 17.96Q278.12 19.36 278.67 20.13Q279.22 20.90 280.19 20.90L280.19 20.90Q281.18 20.90 281.71 20.15Q282.24 19.40 282.24 17.96L282.24 17.96L282.24 17.51Q282.24 16.09 281.70 15.34Q281.16 14.58 280.18 14.58L280.18 14.58Q279.22 14.58 278.68 15.33Q278.14 16.09 278.12 17.46L278.12 17.46ZM287.94 18.13L287.94 18.13L287.94 17.46Q287.94 15.53 288.86 14.44Q289.79 13.35 291.45 13.35L291.45 13.35Q292.87 13.35 293.71 14.05Q294.55 14.76 294.72 16.08L294.72 16.08L293.26 16.08Q293.02 14.54 291.48 14.54L291.48 14.54Q290.48 14.54 289.96 15.26Q289.44 15.98 289.43 17.37L289.43 17.37L289.43 18.02Q289.43 19.40 290.01 20.17Q290.59 20.93 291.63 20.93L291.63 20.93Q292.77 20.93 293.25 20.42L293.25 20.42L293.25 18.75L291.49 18.75L291.49 17.62L294.72 17.62L294.72 20.89Q294.26 21.50 293.44 21.81Q292.62 22.12 291.58 22.12L291.58 22.12Q290.50 22.12 289.68 21.63Q288.85 21.14 288.40 20.24Q287.96 19.33 287.94 18.13ZM300.82 22L299.34 22L299.34 13.47L302.34 13.47Q303.82 13.47 304.62 14.13Q305.42 14.79 305.42 16.05L305.42 16.05Q305.42 16.90 305.01 17.48Q304.60 18.06 303.86 18.37L303.86 18.37L305.77 21.92L305.77 22L304.19 22L302.48 18.71L300.82 18.71L300.82 22ZM300.82 14.66L300.82 17.52L302.35 17.52Q303.10 17.52 303.52 17.15Q303.94 16.77 303.94 16.11L303.94 16.11Q303.94 15.43 303.55 15.05Q303.16 14.68 302.39 14.66L302.39 14.66L300.82 14.66ZM310.60 22L309.06 22L312.28 13.47L313.61 13.47L316.84 22L315.29 22L314.59 20.01L311.29 20.01L310.60 22ZM312.94 15.28L311.70 18.82L314.18 18.82L312.94 15.28ZM322.27 22L320.79 22L320.79 13.47L322.71 13.47L325.17 20.01L327.63 13.47L329.55 13.47L329.55 22L328.07 22L328.07 19.19L328.22 15.43L325.70 22L324.64 22L322.12 15.43L322.27 19.19L322.27 22ZM333.85 19.42L333.85 19.42L335.33 19.42Q335.33 20.15 335.81 20.55Q336.30 20.95 337.19 20.95L337.19 20.95Q337.97 20.95 338.35 20.63Q338.74 20.32 338.74 19.80L338.74 19.80Q338.74 19.24 338.35 18.94Q337.95 18.63 336.92 18.32Q335.89 18.01 335.28 17.63L335.28 17.63Q334.12 16.90 334.12 15.72L334.12 15.72Q334.12 14.69 334.96 14.02Q335.80 13.35 337.14 13.35L337.14 13.35Q338.03 13.35 338.73 13.68Q339.42 14.01 339.82 14.61Q340.22 15.22 340.22 15.96L340.22 15.96L338.74 15.96Q338.74 15.29 338.33 14.91Q337.91 14.54 337.13 14.54L337.13 14.54Q336.40 14.54 336.00 14.85Q335.60 15.16 335.60 15.71L335.60 15.71Q335.60 16.18 336.03 16.50Q336.47 16.81 337.46 17.10Q338.46 17.40 339.06 17.78Q339.66 18.16 339.95 18.65Q340.23 19.13 340.23 19.79L340.23 19.79Q340.23 20.86 339.41 21.49Q338.59 22.12 337.19 22.12L337.19 22.12Q336.27 22.12 335.49 21.77Q334.71 21.43 334.28 20.83Q333.85 20.22 333.85 19.42ZM353.60 22L350.49 22L350.49 13.47L353.42 13.47Q354.86 13.47 355.62 14.05Q356.38 14.63 356.38 15.78L356.38 15.78Q356.38 16.36 356.06 16.83Q355.74 17.30 355.13 17.56L355.13 17.56Q355.82 17.75 356.20 18.26Q356.58 18.78 356.58 19.51L356.58 19.51Q356.58 20.71 355.81 21.36Q355.04 22 353.60 22L353.60 22ZM351.98 18.15L351.98 20.82L353.62 20.82Q354.32 20.82 354.71 20.47Q355.10 20.13 355.10 19.51L355.10 19.51Q355.10 18.18 353.74 18.15L353.74 18.15L351.98 18.15ZM351.98 14.66L351.98 17.06L353.43 17.06Q354.12 17.06 354.51 16.75Q354.90 16.43 354.90 15.86L354.90 15.86Q354.90 15.23 354.54 14.95Q354.18 14.66 353.42 14.66L353.42 14.66L351.98 14.66ZM363.09 18.86L360.23 13.47L361.87 13.47L363.83 17.51L365.80 13.47L367.44 13.47L364.58 18.86L364.58 22L363.09 22L363.09 18.86Z" fill="#FFFFFF"/><path class="svg__text" d="M396.03 22L393.68 22L393.68 13.60L396.03 13.60L396.03 17.09L399.29 13.60L401.90 13.60L398.47 17.32L402.08 22L399.32 22L396.92 18.95L396.03 19.90L396.03 22ZM408.57 22L406.19 22L406.19 13.60L410.03 13.60Q411.17 13.60 412.01 13.98Q412.85 14.35 413.31 15.06Q413.76 15.76 413.76 16.71L413.76 16.71Q413.76 17.62 413.34 18.30Q412.91 18.98 412.12 19.36L412.12 19.36L413.93 22L411.38 22L409.86 19.77L408.57 19.77L408.57 22ZM408.57 15.47L408.57 17.93L409.88 17.93Q410.62 17.93 410.99 17.61Q411.36 17.29 411.36 16.71L411.36 16.71Q411.36 16.12 410.99 15.79Q410.62 15.47 409.88 15.47L409.88 15.47L408.57 15.47ZM420.93 22L418.55 22L418.55 13.60L420.93 13.60L420.93 22ZM427.90 15.48L425.31 15.48L425.31 13.60L432.84 13.60L432.84 15.48L430.27 15.48L430.27 22L427.90 22L427.90 15.48ZM439.59 22L437.21 22L437.21 13.60L439.59 13.60L439.59 22ZM447.12 22L444.76 22L444.76 13.60L447.12 13.60L447.12 17.09L450.37 13.60L452.98 13.60L449.55 17.32L453.16 22L450.40 22L448.00 18.95L447.12 19.90L447.12 22ZM465.66 22L463.23 22L466.94 13.60L469.29 13.60L473.00 22L470.54 22L469.87 20.37L466.32 20.37L465.66 22ZM468.10 15.93L467.01 18.61L469.18 18.61L468.10 15.93ZM476.73 17.80L476.73 17.80Q476.73 16.54 477.33 15.54Q477.92 14.55 478.99 13.99Q480.06 13.43 481.40 13.43L481.40 13.43Q482.58 13.43 483.52 13.83Q484.46 14.22 485.08 14.97L485.08 14.97L483.57 16.33Q482.72 15.40 481.55 15.40L481.55 15.40Q481.53 15.40 481.53 15.40L481.53 15.40Q480.45 15.40 479.79 16.06Q479.13 16.71 479.13 17.80L479.13 17.80Q479.13 18.50 479.43 19.04Q479.73 19.59 480.27 19.89Q480.81 20.20 481.50 20.20L481.50 20.20Q482.19 20.20 482.79 19.93L482.79 19.93L482.79 17.62L484.88 17.62L484.88 21.10Q484.16 21.61 483.23 21.89Q482.30 22.17 481.36 22.17L481.36 22.17Q480.04 22.17 478.98 21.61Q477.92 21.05 477.33 20.05Q476.73 19.06 476.73 17.80ZM491.30 22L488.87 22L492.58 13.60L494.92 13.60L498.64 22L496.17 22L495.51 20.37L491.96 20.37L491.30 22ZM493.73 15.93L492.65 18.61L494.81 18.61L493.73 15.93ZM505.17 22L502.79 22L502.79 13.60L506.63 13.60Q507.78 13.60 508.62 13.98Q509.45 14.35 509.91 15.06Q510.37 15.76 510.37 16.71L510.37 16.71Q510.37 17.62 509.94 18.30Q509.51 18.98 508.72 19.36L508.72 19.36L510.53 22L507.99 22L506.47 19.77L505.17 19.77L505.17 22ZM505.17 15.47L505.17 17.93L506.49 17.93Q507.22 17.93 507.59 17.61Q507.97 17.29 507.97 16.71L507.97 16.71Q507.97 16.12 507.59 15.79Q507.22 15.47 506.49 15.47L506.49 15.47L505.17 15.47ZM517.23 22L514.51 13.60L516.96 13.60L518.65 18.96L520.42 13.60L522.61 13.60L524.30 19.01L526.06 13.60L528.33 13.60L525.61 22L523.06 22L521.46 16.89L519.78 22L517.23 22ZM534.26 22L531.84 22L535.55 13.60L537.89 13.60L541.60 22L539.14 22L538.47 20.37L534.92 20.37L534.26 22ZM536.70 15.93L535.62 18.61L537.78 18.61L536.70 15.93ZM552.14 22L545.76 22L545.76 13.60L548.14 13.60L548.14 20.11L552.14 20.11L552.14 22Z" fill="#FFFFFF" x="392.49"/></svg>